<?xml version="1.0" encoding="UTF-8"?><svg id="uuid-2c24093e-6b61-454c-aa28-08fc52bd1079" xmlns="http://www.w3.org/2000/svg" viewBox="0 0 200 146.53"><g id="uuid-b909b839-83b8-4ecb-88c1-50a531352403"><path id="uuid-5f0c567a-3aa4-4326-84cb-a32148842990" d="M199.29,54.44c2.69-28.28-3.12-48.95-3.37-49.82l-1.33-4.62-4.34,2.02c-27.47,12.72-46.93,41.27-56.34,82.52-4.57,20.12-5.74,38.45-5.98,49.05-1.53-.01-3.06-.02-4.62-.02-2.3,0-4.57,.01-6.81,.04-2.53-15.75-9.44-49.53-25.36-76.66-8.71-14.84-20.9-22.28-34.35-20.96C35.47,38.07,14.89,61.83,1.76,99.58l-1.76,5.03,5.32,.42c1.31,.1,26.12,1.82,51.65-13.49,4.59,5.19,15.83,18.87,29.45,42.3,.17,.3,.35,.61,.52,.91-16.21,1.18-26.81,3.11-26.81,5.3,0,3.59,28.28,6.49,63.18,6.49s63.18-2.9,63.18-6.49c0-1.95-8.48-3.71-21.86-4.9,.39-.44,.8-.87,1.17-1.31,23.68-27.56,31.43-57.54,33.5-79.4Zm-103.19,79.76c-.06-.12-.14-.25-.2-.36-14.35-25.43-26.43-40.48-32.01-46.89,3.5-2.54,16.81-13.2,23.74-19.3,12.22,23.83,18.11,51.79,20.52,66.1-4.2,.11-8.23,.26-12.05,.45Zm58.61-.36c-.17,.19-.37,.37-.55,.56-5.54-.32-11.58-.56-17.98-.7,.67-25.16-.15-76.67,46.04-102.29,3.35,17.03,17.37,55.38-27.51,102.43Z"/></g></svg>